<svg width="760" height="160" viewBox="0 0 760 160" fill="none" xmlns="http://www.w3.org/2000/svg">
<svg x="0" y="0" width="160" height="160" viewBox="0 0 1024 1024" fill="none">
  <defs>
    <linearGradient id="badge_l" x1="64" y1="64" x2="960" y2="960" gradientUnits="userSpaceOnUse">
      <stop offset="0" stop-color="#F6F0E4"/>
      <stop offset="0.6" stop-color="#EFF4E7"/>
      <stop offset="1" stop-color="#E6F5EA"/>
    </linearGradient>
    <linearGradient id="plane_l" x1="324" y1="421" x2="688" y2="706" gradientUnits="userSpaceOnUse">
      <stop offset="0" stop-color="#22C55E"/>
      <stop offset="1" stop-color="#15A34A"/>
    </linearGradient>
    <radialGradient id="glow_l" cx="0.46" cy="0.30" r="0.85">
      <stop offset="0" stop-color="#22C55E" stop-opacity="0.07"/>
      <stop offset="1" stop-color="#22C55E" stop-opacity="0"/>
    </radialGradient>
  </defs>
  <rect x="64" y="64" width="896" height="896" rx="232" fill="url(#badge_l)"/>
  <rect x="64" y="64" width="896" height="896" rx="232" fill="url(#glow_l)"/>
  <rect x="65" y="65" width="894" height="894" rx="231" fill="none" stroke="#16A34A" stroke-opacity="0.18" stroke-width="2"/>
  <g fill="#16A34A">
    <circle cx="350" cy="618" r="23" opacity="0.85"/>
    <circle cx="288" cy="676" r="15" opacity="0.5"/>
    <circle cx="240" cy="722" r="10" opacity="0.28"/>
  </g>
  <g transform="translate(548,492) rotate(-28) scale(16) translate(-12.5,-12)">
    <path d="M8.5,12 L23,12 L2,21 Z" fill="url(#plane_l)"/>
    <path d="M2,3 L23,12 L8.5,12 Z" fill="#4ADE80"/>
  </g>
</svg>
<text x="188" y="108" font-family="'JetBrains Mono','SFMono-Regular',ui-monospace,Menlo,monospace" font-size="76" font-weight="700" letter-spacing="-2" fill="#0B1419">Pilot Status</text>
</svg>